HIERARCHY
ROOT hips_JNT
{
    OFFSET 0 0 0
    CHANNELS 6 Xposition Yposition Zposition Zrotation Xrotation Yrotation
    JOINT spine_JNT
    {
        OFFSET -0.000424254 9.31981 2.54342
        CHANNELS 3 Zrotation Xrotation Yrotation
        JOINT spine1_JNT
        {
            OFFSET 0 10.8731 -4.54485e-05
            CHANNELS 3 Zrotation Xrotation Yrotation
            JOINT spine2_JNT
            {
                OFFSET 0 12.4264 -5.95116
                CHANNELS 3 Zrotation Xrotation Yrotation
                JOINT neck_JNT
                {
                    OFFSET 0 13.9797 -1.46048
                    CHANNELS 3 Zrotation Xrotation Yrotation
                    JOINT head_JNT
                    {
                        OFFSET 0 5.8702 2.0915
                        CHANNELS 3 Zrotation Xrotation Yrotation
                        End Site
                        {
                            OFFSET 0 0 0
                        }
                    }
                }
                JOINT l_shoulder_JNT
                {
                    OFFSET 4.39914 12.861 -1.48501
                    CHANNELS 3 Zrotation Xrotation Yrotation
                    JOINT l_arm_JNT
                    {
                        OFFSET 8.75735 -2.31198 -0.0490516
                        CHANNELS 3 Zrotation Xrotation Yrotation
                        JOINT l_forearm_JNT
                        {
                            OFFSET 26.9001 -4.76837e-05 1.2666e-05
                            CHANNELS 3 Zrotation Xrotation Yrotation
                            JOINT l_hand_JNT
                            {
                                OFFSET 23.0148 -4.76837e-05 -3.72529e-06
                                CHANNELS 3 Zrotation Xrotation Yrotation
                                JOINT l_handThumb1_JNT
                                {
                                    OFFSET 3.63 -0.779998 2.13
                                    CHANNELS 3 Zrotation Xrotation Yrotation
                                    JOINT l_handThumb2_JNT
                                    {
                                        OFFSET 3.55114 -2.11837 2.24006
                                        CHANNELS 3 Zrotation Xrotation Yrotation
                                        JOINT l_handThumb3_JNT
                                        {
                                            OFFSET 2.15911 -1.11631 0.963467
                                            CHANNELS 3 Zrotation Xrotation Yrotation
                                            End Site
                                            {
                                                OFFSET 0 0 0
                                            }
                                        }
                                    }
                                }
                                JOINT l_handIndex1_JNT
                                {
                                    OFFSET 10.5149 -0.0410199 2.19757
                                    CHANNELS 3 Zrotation Xrotation Yrotation
                                    JOINT l_handIndex2_JNT
                                    {
                                        OFFSET 2.75183 -0.102866 -0.139054
                                        CHANNELS 3 Zrotation Xrotation Yrotation
                                        JOINT l_handIndex3_JNT
                                        {
                                            OFFSET 2.35301 -0.0733972 -0.0904871
                                            CHANNELS 3 Zrotation Xrotation Yrotation
                                            End Site
                                            {
                                                OFFSET 0 0 0
                                            }
                                        }
                                    }
                                }
                                JOINT l_handMiddle1_JNT
                                {
                                    OFFSET 10.0671 0.139201 0.0595726
                                    CHANNELS 3 Zrotation Xrotation Yrotation
                                    JOINT l_handMiddle2_JNT
                                    {
                                        OFFSET 3.90903 -0.288403 -0.119066
                                        CHANNELS 3 Zrotation Xrotation Yrotation
                                        JOINT l_handMiddle3_JNT
                                        {
                                            OFFSET 2.3284 -0.0191092 -0.0594396
                                            CHANNELS 3 Zrotation Xrotation Yrotation
                                            End Site
                                            {
                                                OFFSET 0 0 0
                                            }
                                        }
                                    }
                                }
                                JOINT l_handRing1_JNT
                                {
                                    OFFSET 9.46811 0.132239 -1.80983
                                    CHANNELS 3 Zrotation Xrotation Yrotation
                                    JOINT l_handRing2_JNT
                                    {
                                        OFFSET 3.28153 -0.224054 -0.0339366
                                        CHANNELS 3 Zrotation Xrotation Yrotation
                                        JOINT l_handRing3_JNT
                                        {
                                            OFFSET 2.245 -0.0702143 -0.00838935
                                            CHANNELS 3 Zrotation Xrotation Yrotation
                                            End Site
                                            {
                                                OFFSET 0 0 0
                                            }
                                        }
                                    }
                                }
                                JOINT l_handPinky1_JNT
                                {
                                    OFFSET 8.49077 -0.0777721 -3.58415
                                    CHANNELS 3 Zrotation Xrotation Yrotation
                                    JOINT l_handPinky2_JNT
                                    {
                                        OFFSET 2.53217 -0.0730753 -0.0170402
                                        CHANNELS 3 Zrotation Xrotation Yrotation
                                        JOINT l_handPinky3_JNT
                                        {
                                            OFFSET 1.95121 0.0251174 0.0170089
                                            CHANNELS 3 Zrotation Xrotation Yrotation
                                            End Site
                                            {
                                                OFFSET 0 0 0
                                            }
                                        }
                                    }
                                }
                            }
                        }
                    }
                }
                JOINT r_shoulder_JNT
                {
                    OFFSET -4.39782 12.8606 -1.48501
                    CHANNELS 3 Zrotation Xrotation Yrotation
                    JOINT r_arm_JNT
                    {
                        OFFSET -8.75732 -2.312 -0.0490502
                        CHANNELS 3 Zrotation Xrotation Yrotation
                        JOINT r_forearm_JNT
                        {
                            OFFSET -26.9 0 1.00583e-05
                            CHANNELS 3 Zrotation Xrotation Yrotation
                            JOINT r_hand_JNT
                            {
                                OFFSET -23.0149 0 0
                                CHANNELS 3 Zrotation Xrotation Yrotation
                                JOINT r_handThumb1_JNT
                                {
                                    OFFSET -3.63 -0.779998 2.13
                                    CHANNELS 3 Zrotation Xrotation Yrotation
                                    JOINT r_handThumb2_JNT
                                    {
                                        OFFSET -3.5512 -2.118 2.24006
                                        CHANNELS 3 Zrotation Xrotation Yrotation
                                        JOINT r_handThumb3_JNT
                                        {
                                            OFFSET -2.1591 -1.116 0.963467
                                            CHANNELS 3 Zrotation Xrotation Yrotation
                                            End Site
                                            {
                                                OFFSET 0 0 0
                                            }
                                        }
                                    }
                                }
                                JOINT r_handIndex1_JNT
                                {
                                    OFFSET -10.5149 -0.0409961 2.19756
                                    CHANNELS 3 Zrotation Xrotation Yrotation
                                    JOINT r_handIndex2_JNT
                                    {
                                        OFFSET -2.7518 -0.102997 -0.13905
                                        CHANNELS 3 Zrotation Xrotation Yrotation
                                        JOINT r_handIndex3_JNT
                                        {
                                            OFFSET -2.353 -0.0730038 -0.0904899
                                            CHANNELS 3 Zrotation Xrotation Yrotation
                                            End Site
                                            {
                                                OFFSET 0 0 0
                                            }
                                        }
                                    }
                                }
                                JOINT r_handMiddle1_JNT
                                {
                                    OFFSET -10.0671 0.139999 0.05957
                                    CHANNELS 3 Zrotation Xrotation Yrotation
                                    JOINT r_handMiddle2_JNT
                                    {
                                        OFFSET -3.9091 -0.288999 -0.11907
                                        CHANNELS 3 Zrotation Xrotation Yrotation
                                        JOINT r_handMiddle3_JNT
                                        {
                                            OFFSET -2.3284 -0.019002 -0.05944
                                            CHANNELS 3 Zrotation Xrotation Yrotation
                                            End Site
                                            {
                                                OFFSET 0 0 0
                                            }
                                        }
                                    }
                                }
                                JOINT r_handRing1_JNT
                                {
                                    OFFSET -9.4681 0.133002 -1.80983
                                    CHANNELS 3 Zrotation Xrotation Yrotation
                                    JOINT r_handRing2_JNT
                                    {
                                        OFFSET -3.2816 -0.224996 -0.0339396
                                        CHANNELS 3 Zrotation Xrotation Yrotation
                                        JOINT r_handRing3_JNT
                                        {
                                            OFFSET -2.245 -0.0699997 -0.0083901
                                            CHANNELS 3 Zrotation Xrotation Yrotation
                                            End Site
                                            {
                                                OFFSET 0 0 0
                                            }
                                        }
                                    }
                                }
                                JOINT r_handPinky1_JNT
                                {
                                    OFFSET -8.4908 -0.0769973 -3.58415
                                    CHANNELS 3 Zrotation Xrotation Yrotation
                                    JOINT r_handPinky2_JNT
                                    {
                                        OFFSET -2.5322 -0.0740051 -0.0170402
                                        CHANNELS 3 Zrotation Xrotation Yrotation
                                        JOINT r_handPinky3_JNT
                                        {
                                            OFFSET -1.9512 0.0259995 0.0170097
                                            CHANNELS 3 Zrotation Xrotation Yrotation
                                            End Site
                                            {
                                                OFFSET 0 0 0
                                            }
                                        }
                                    }
                                }
                            }
                        }
                    }
                }
            }
        }
    }
    JOINT l_upleg_JNT
    {
        OFFSET 10.0614 -5.18575 -0.706233
        CHANNELS 3 Zrotation Xrotation Yrotation
        JOINT l_leg_JNT
        {
            OFFSET -0.348572 -45.5824 -0.819168
            CHANNELS 3 Zrotation Xrotation Yrotation
            JOINT l_foot_JNT
            {
                OFFSET 0.349145 -42.3325 -1.70849
                CHANNELS 3 Zrotation Xrotation Yrotation
                JOINT l_toebase_JNT
                {
                    OFFSET 0.0702709 -8.12666 12.8887
                    CHANNELS 3 Zrotation Xrotation Yrotation
                    End Site
                    {
                        OFFSET 0 0 0
                    }
                }
            }
        }
    }
    JOINT r_upleg_JNT
    {
        OFFSET -10.061 -5.18577 -0.706233
        CHANNELS 3 Zrotation Xrotation Yrotation
        JOINT r_leg_JNT
        {
            OFFSET 0.34858 -45.5824 -0.819165
            CHANNELS 3 Zrotation Xrotation Yrotation
            JOINT r_foot_JNT
            {
                OFFSET -0.34918 -42.3325 -1.70849
                CHANNELS 3 Zrotation Xrotation Yrotation
                JOINT r_toebase_JNT
                {
                    OFFSET -0.0702001 -8.12666 12.8887
                    CHANNELS 3 Zrotation Xrotation Yrotation
                    End Site
                    {
                        OFFSET 0 0 0
                    }
                }
            }
        }
    }
}
MOTION
Frames: 6
Frame Time: 0.05
-0.0236046 11.8188 0.50624 12.5072 19.6167 -3.79735 -26.3786 -0.000680126 0 -5.33608e-08 -1.70755e-06 0 -1.9456 0.0102385 15.7955 4.74704 21.6121 -3.90809 -6.60973 3.53087 -0.326259 -3.41509e-06 -6.61674e-06 0 18.6659 -2.26192 -13.0724 0.254994 -0.0457241 -20.3318 -2.13443e-07 -3.4818e-06 0 4.10661 20.7048 -22.2077 -0 0 0 -9.06807 -0.0716139 0.900479 -14.2841 4.23326 0.52934 -18.3869 5.40578 0.874014 -12.2376 3.63853 0.391671 -16.7004 3.28936 0.484567 -21.4871 4.18991 0.795242 -14.3104 2.83012 0.353877 -19.0506 -1.86949 -0.314035 -24.4992 -2.37458 -0.515861 -16.3275 -1.61032 -0.2307 -20.8882 -4.07881 -0.75173 -26.8852 -5.16782 -1.23541 -17.8962 -3.51689 -0.553906 -3.41509e-06 -6.61674e-06 0 -5.29688 -4.05026 53.564 -5.57147 -0.569834 11.6704 8.53773e-07 -2.56132e-06 0 -4.10661 20.7048 22.2077 -0 0 0 10.0455 0.0878432 0.999354 15.8304 4.6785 -0.651318 20.3826 5.96497 -1.07045 13.5609 4.02376 -0.481325 18.5052 3.63216 -0.588172 23.8128 4.61662 -0.974773 15.856 3.12776 -0.435212 21.1058 -2.06228 0.383594 27.1435 -2.61214 0.631798 18.0887 -1.7784 0.285305 23.1486 -4.49555 0.920253 29.8013 -5.67648 1.51074 19.8309 -3.88151 0.679547 92.4444 -36.2476 39.3515 -0.589118 27.3931 0.172458 0.37361 -0.781928 0.0395647 -3.18831e-06 -1.41406e-06 0 -175.564 -62.1523 -174.894 0.475167 12.1271 -0.285305 -1.62763 -4.97941 0.0791294 -8.53774e-07 3.41509e-06 0 
0.17695 12.0149 0.721459 12.047 19.5877 -3.33437 -25.9399 -0.00138834 0 -5.33609e-08 1.65419e-06 0 -1.86134 0.0264497 15.5144 4.57625 21.7867 -3.77025 -6.82545 3.35884 -0.338041 4.26887e-07 -6.36111e-15 0 18.1291 -2.18698 -12.6899 0.370323 -0.0673152 -20.6034 2.13443e-07 1.78759e-06 0 4.10661 20.7048 -22.2077 -0 0 0 -9.10104 -0.0721346 0.906543 -14.3362 4.24833 0.532289 -18.4542 5.42476 0.881149 -12.2822 3.65156 0.391671 -16.7613 3.30099 0.490985 -21.5655 4.20442 0.799169 -14.3626 2.8402 0.366908 -19.1199 -1.87603 -0.318981 -24.5884 -2.38268 -0.520393 -16.387 -1.61602 -0.227282 -20.9644 -4.09298 -0.755884 -26.9835 -5.18521 -1.24425 -17.9614 -3.52926 -0.553906 4.26887e-07 -6.36111e-15 0 -5.48818 -3.96844 53.981 -5.11847 -0.491427 10.9612 -8.53774e-07 1.70755e-06 0 -4.10661 20.7048 22.2077 -0 0 0 10.0536 0.087985 0.999354 15.8432 4.68218 -0.64891 20.3992 5.96959 -1.07482 13.5719 4.02695 -0.478062 18.5202 3.63499 -0.590827 23.8322 4.62014 -0.974773 15.8688 3.13022 -0.435212 21.1229 -2.06388 0.383594 27.1655 -2.6141 0.630558 18.1033 -1.77979 0.29074 23.1674 -4.49899 0.922802 29.8256 -5.68065 1.5154 19.847 -3.88453 0.681846 93.2616 -37.1831 39.4985 -0.544442 29.2234 0.172458 0.469611 -3.36324 0.125115 -7.57057e-06 -1.27266e-05 0 -174.94 -60.9992 -173.542 0.481438 14.8769 -0.318981 -1.53983 -6.47917 0.0395647 1.70755e-06 -1.01786e-05 0 
0.524684 12.3049 0.787852 11.3164 19.6121 -2.51886 -25.329 -0.00351025 0 8.53774e-07 -5.33608e-08 0 -1.67894 0.0643398 14.9585 4.18412 21.911 -3.44794 -6.90658 3.43367 -0.340348 2.13443e-07 2.13443e-07 0 17.3263 -2.14365 -12.3601 0.599371 -0.110071 -20.8123 -6.4033e-07 -8.00413e-08 0 4.10661 20.7048 -22.2077 -0 0 0 -9.15869 -0.0730494 0.90999 -14.4274 4.27467 0.542484 -18.5718 5.45791 0.891745 -12.3602 3.67433 0.399584 -16.8677 3.32129 0.489388 -21.7026 4.22977 0.811801 -14.4537 2.85781 0.362616 -19.2411 -1.88747 -0.321425 -24.7443 -2.39683 -0.523392 -16.4908 -1.62597 -0.240663 -21.0977 -4.11772 -0.769227 -27.1554 -5.21556 -1.25926 -18.0755 -3.55087 -0.560927 2.13443e-07 2.13443e-07 0 -5.69163 -3.86723 54.5512 -4.4973 -0.397851 10.1058 -8.53774e-07 -4.26887e-07 0 -4.10661 20.7048 22.2077 -0 0 0 10.0708 0.0882863 1.0017 15.8705 4.69001 -0.656107 20.4344 5.97939 -1.07846 13.5952 4.03373 -0.479697 18.5521 3.64101 -0.592151 23.8732 4.6276 -0.978779 15.8961 3.13545 -0.437006 21.1592 -2.06725 0.391671 27.2122 -2.61824 0.635504 18.1344 -1.78274 0.288035 23.2073 -4.50628 0.925342 29.877 -5.68949 1.51798 19.8811 -3.89092 0.681846 94.6361 -38.5687 40.1247 -0.553802 31.4769 0.29074 0.642328 -7.01165 0.125115 6.42998e-06 -1.28066e-06 0.0559529 -173.722 -60.4731 -170.994 0.48385 16.3458 -0.331022 -1.43935 -7.41833 0.0791294 8.53774e-07 -3.40175e-06 0 
0.993347 12.6252 0.540878 10.3546 19.6986 -1.29117 -24.6123 -0.00705848 0 -1.60083e-06 1.76091e-06 0 -1.39317 0.120275 14.0532 3.5386 21.985 -2.91581 -6.77981 3.8285 -0.316518 -1.92099e-06 6.4033e-07 0 16.3126 -2.14217 -12.2185 0.908787 -0.166926 -20.816 2.13443e-07 2.66804e-08 0 4.10661 20.7048 -22.2077 -0 0 0 -9.24279 -0.0743944 0.921953 -14.5604 4.31309 0.552491 -18.7434 5.50624 0.91085 -12.4741 3.70754 0.405418 -17.0229 3.35089 0.500458 -21.9027 4.26672 0.82424 -14.5867 2.88349 0.369035 -19.418 -1.90414 -0.321425 -24.9718 -2.41743 -0.538138 -16.6423 -1.64048 -0.243893 -21.2921 -4.15379 -0.780339 -27.4062 -5.25977 -1.28205 -18.2419 -3.58238 -0.574711 -1.92099e-06 6.4033e-07 0 -5.79118 -3.72889 55.2334 -3.78913 -0.305104 9.20354 1.70755e-06 -1.70755e-06 0 -4.10661 20.7048 22.2077 -0 0 0 10.1007 0.0888092 1.00482 15.9178 4.70355 -0.657299 20.4954 5.99635 -1.08641 13.6357 4.04546 -0.482949 18.6072 3.65142 -0.600029 23.9443 4.64051 -0.98595 15.9433 3.14451 -0.438794 21.222 -2.0731 0.387653 27.293 -2.6254 0.635504 18.1882 -1.78784 0.288035 23.2764 -4.5189 0.929562 29.9662 -5.7048 1.52723 19.9403 -3.90199 0.688699 96.5229 -40.3093 41.3993 -0.561133 33.6307 0.438794 0.784299 -11.3969 0 1.60083e-07 6.4033e-07 0 -171.615 -60.9689 -166.946 0.485769 15.5437 -0.259443 -1.43421 -7.26121 0.068528 -1.28066e-06 6.81685e-06 0 
1.55197 12.8741 -0.0803947 9.22975 19.855 0.377423 -23.8728 -0.010261 0 -1.92099e-06 -7.15625e-15 0.0559529 -1.01884 0.181339 12.7398 2.64267 22.0324 -2.17825 -6.3892 4.56485 -0.237388 1.23797e-05 1.10991e-05 0 15.2027 -2.17336 -12.4261 1.23033 -0.221736 -20.4327 -0 0 0 4.10661 20.7048 -22.2077 -0 0 0 -9.35144 -0.0761498 0.932085 -14.7322 4.36267 0.565097 -18.9651 5.5686 0.931244 -12.6211 3.75043 0.414958 -17.2235 3.3891 0.514341 -22.1611 4.31436 0.844872 -14.7584 2.91663 0.377423 -19.6464 -1.92564 -0.335718 -25.2657 -2.444 -0.548225 -16.8381 -1.65921 -0.240663 -21.5433 -4.20031 -0.798189 -27.7302 -5.31672 -1.31341 -18.4569 -3.62304 -0.58684 1.23797e-05 1.10991e-05 0 -5.65439 -3.51775 55.9519 -3.13296 -0.229481 8.3765 -8.53774e-07 2.98821e-06 0 -4.10661 20.7048 22.2077 -0 0 0 10.1455 0.0895973 1.00871 15.9888 4.72389 -0.665582 20.5871 6.02182 -1.09502 13.6964 4.06308 -0.487787 18.69 3.66705 -0.603929 24.0511 4.65989 -0.99543 16.0142 3.1581 -0.442347 21.3163 -2.08187 0.389667 27.4143 -2.63616 0.645281 18.2689 -1.79551 0.29074 23.3802 -4.53783 0.938778 30.1001 -5.72775 1.541 20.029 -3.9186 0.6921 98.8502 -42.3589 43.2377 -0.576636 35.3657 0.383594 0.839216 -16.1995 0.104678 5.33608e-07 1.28066e-06 0 -167.734 -62.7696 -160.617 0.476535 11.4739 -0.2307 -1.54424 -5.42658 0 4.96962e-17 -2.66804e-08 0 
2.20026 12.9444 -0.960513 8.02111 20.0937 2.5064 -23.1904 -0.0128987 0.0395647 7.47052e-07 -3.41509e-06 0.0559529 -0.59034 0.228995 10.9937 1.54293 22.1011 -1.27224 -5.71179 5.59691 -0.181308 3.97569e-16 -2.13443e-07 0 14.159 -2.21017 -13.1565 1.46402 -0.251001 -19.4564 -2.13443e-07 -1.76091e-06 0 4.10661 20.7048 -22.2077 -0 0 0 -9.47653 -0.0781962 0.942938 -14.9301 4.41972 0.578782 -19.2204 5.6403 0.956126 -12.7905 3.79977 0.429783 -17.4545 3.43303 0.526374 -22.4587 4.36911 0.866821 -14.9562 2.95477 0.387653 -19.9094 -1.95036 -0.340348 -25.6041 -2.4745 -0.563711 -17.0635 -1.68075 -0.253338 -21.8326 -4.25378 -0.822338 -28.1033 -5.38209 -1.34637 -18.7045 -3.66978 -0.607805 3.97569e-16 -2.13443e-07 0 -5.16611 -3.1861 56.6016 -2.70468 -0.183018 7.74059 1.70755e-06 -4.26887e-07 0 -4.10661 20.7048 22.2077 -0 0 0 10.2072 0.0906878 1.01335 16.0865 4.75187 -0.672601 20.7133 6.05684 -1.10782 13.78 4.08732 -0.490985 18.804 3.68855 -0.612934 24.198 4.68653 -1.00482 16.1118 3.17681 -0.447624 21.4461 -2.09394 0.39762 27.5813 -2.65094 0.651318 18.3802 -1.80605 0.29074 23.523 -4.56387 0.951202 30.2844 -5.75929 1.55768 20.1513 -3.94145 0.697732 101.506 -44.822 45.1969 -0.511556 36.7464 0.265408 0.673706 -21.2202 0.0395647 -2.77476e-06 -8.53773e-07 0 -157.171 -67.7064 -147.555 0.467892 -1.28245 0.118694 -1.81689 1.00018 0.111906 1.49088e-16 4.00206e-08 0 
